<?xml version="1.0" encoding="UTF-8"?>
<svg width="16" height="16" xmlns="http://www.w3.org/2000/svg" viewBox="0 0 16 16">
    <path fill="currentColor"
          d="M4.92,3.47c-.3-.16-.5-.43-.59-.75-.06-.21-.06-.41-.03-.62.06-.43.33-.79.73-.96.27-.11.56-.13.85-.06.27.07.47.23.64.45V.01s.35,0,.35,0v3.59h-.33s0-.49,0-.49c-.33.55-1.08.65-1.61.36h0ZM6.45,2.74c.1-.27.1-.57,0-.84-.14-.35-.46-.55-.84-.56-.43-.01-.81.24-.94.66-.13.46.02,1.01.48,1.23.48.23,1.09.05,1.3-.49Z"/>
    <path fill="currentColor"
          d="M11.41,2.33c0,.72-.58,1.31-1.31,1.31s-1.31-.58-1.31-1.31.58-1.31,1.31-1.31,1.31.58,1.31,1.31ZM11.01,2.65c.06-.21.06-.44,0-.65-.11-.4-.46-.65-.87-.67-.47-.02-.88.29-.96.77-.04.22-.03.46.07.67.1.22.27.4.5.49.51.19,1.1-.04,1.26-.6h0Z"/>
    <path fill="currentColor"
          d="M2.09,2.85c.03.43-.3.68-.68.75s-.77.03-1.12-.12c-.1-.04-.19-.09-.28-.16l.15-.27c.38.26.84.35,1.28.24.16-.04.29-.16.31-.32.04-.28-.2-.38-.43-.42l-.59-.12c-.14-.03-.28-.08-.39-.16-.15-.1-.22-.25-.24-.43-.03-.43.28-.69.67-.77.39-.07.9-.02,1.23.21l-.15.27c-.13-.09-.27-.15-.43-.18-.26-.05-.61-.07-.84.09-.16.12-.21.36-.07.52.09.09.22.14.34.16l.6.12c.13.03.25.08.36.14.17.1.25.26.26.45h0Z"/>
    <path fill="currentColor"
          d="M3.91,3.21l.12.24c-.21.19-.62.22-.87.12-.29-.11-.41-.38-.41-.68v-1.55s-.45,0-.45,0v-.29h.45s0-.56,0-.56h.34v.56h.78s0,.29,0,.29h-.78s0,1.54,0,1.54c0,.13.04.25.12.33.16.17.53.14.7-.01h0Z"/>
    <rect fill="currentColor" x="7.79" y="1.06" width=".34" height="2.54"/>
    <path fill="currentColor"
          d="M13.13,3.3c0,.24-.22.31-.41.31h-.57v-1.13h.52c.07,0,.13.01.2.03.11.04.18.12.19.23,0,.11-.03.22-.15.28.13.04.21.14.21.28h0ZM12.87,2.9c.05-.05.05-.14.02-.2-.08-.15-.41-.08-.57-.1v.36h.37c.06,0,.14-.02.18-.07ZM12.92,3.41c.07-.07.07-.19,0-.25-.04-.04-.12-.06-.18-.06h-.42s0,.37,0,.37h.41c.06,0,.14-.02.19-.06h0Z"/>
    <path fill="currentColor"
          d="M14.13,2.75v.85h-.14s-.01-.11-.01-.11c-.09.11-.22.14-.35.12-.17-.02-.29-.14-.29-.31v-.54s.15,0,.15,0v.51c0,.13.11.21.23.21.15,0,.26-.1.26-.25v-.47s.16,0,.16,0Z"/>
    <path fill="currentColor"
          d="M14.86,3.57c-.19.08-.4.05-.58-.05l.06-.13c.11.09.49.15.5-.02,0-.04-.03-.09-.08-.1l-.27-.06c-.05-.01-.11-.04-.14-.08-.05-.06-.06-.14-.03-.22.07-.22.48-.21.65-.1l-.06.12c-.11-.07-.45-.11-.45.06,0,.04.04.08.08.09l.28.06c.1.02.18.09.18.19,0,.09-.04.18-.14.23h0Z"/>
    <circle fill="currentColor" cx="7.97" cy=".25" r=".25"/>
</svg>
